<svg xmlns="http://www.w3.org/2000/svg" width="300" height="324.109" viewBox="0 0 300 324.109">
  <g id="Group_8" data-name="Group 8" transform="translate(-35 -137)">
    <g id="freepik--background-simple--inject-34" transform="translate(51.33 144.044)">
      <path id="Path_1" data-name="Path 1" d="M316.33,83.741l-1.6-2.631c-13.466-22.173-37.82-35.573-63.489-33.947a67.791,67.791,0,0,0-9.823,1.323c-23.341,5-43.651,22.653-52.069,45.255-4.952,13.3-6.334,28.6-15.728,39.172-12.225,13.732-32.986,14.169-51.234,13.6s-39.024-.089-51.19,13.7c-7.62,8.633-10.022,20.916-9.431,32.476C63.4,223.3,84.734,250.681,111.858,264.3s59.076,14.826,88.766,8.869c41.6-8.381,81.16-31.412,104.952-66.977S335.384,122.13,316.33,83.741Z" transform="translate(-61.684 -47.03)" fill="#f5f5f5"/>
      <circle id="Ellipse_9" data-name="Ellipse 9" cx="22.993" cy="22.993" r="22.993" transform="translate(48.844 20.259)" fill="#f5f5f5"/>
    </g>
    <g id="freepik--Character--inject-34" transform="translate(35 240.023)">
      <rect id="Rectangle_30" data-name="Rectangle 30" width="8.581" height="68.123" transform="translate(8.662 151.537)" fill="#455a64"/>
      <path id="Path_2" data-name="Path 2" d="M59.83,449.939v-5.292c0-3.407,0-8.33-.059-14.442,0-12.232-.052-29.231-.081-48.381l.192.192h-8.64l.192-.192c-.044,29.837-.081,55.676-.1,68.115l-.089-.081,6.364.044h.052l-6.415.044h-.081v-.089c0-12.439-.059-38.278-.111-68.115l.192-.192h8.78v.192c0,19.217-.067,36.253-.081,48.522,0,6.09-.044,11-.059,14.4v4.871C59.838,449.835,59.83,449.939,59.83,449.939Z" transform="translate(-42.58 -230.286)" fill="#263238"/>
      <g id="Group_2" data-name="Group 2" transform="translate(8.662 153.193)" opacity="0.3">
        <rect id="Rectangle_31" data-name="Rectangle 31" width="8.581" height="2.838"/>
      </g>
      <rect id="Rectangle_32" data-name="Rectangle 32" width="8.581" height="68.123" transform="translate(191.227 151.537)" fill="#455a64"/>
      <path id="Path_3" data-name="Path 3" d="M306.833,449.939v-5.292c0-3.407,0-8.33-.059-14.442,0-12.232-.044-29.231-.081-48.381l.192.192h-8.633l.192-.192c-.052,29.837-.089,55.676-.111,68.115l-.081-.081,6.364.044h.052l-6.415.044h-.089v-.089c0-12.439-.059-38.278-.1-68.115l.192-.192h8.773v.192c0,19.217-.059,36.253-.081,48.522,0,6.09-.044,11-.059,14.4v4.871C306.841,449.835,306.833,449.939,306.833,449.939Z" transform="translate(-107.025 -230.286)" fill="#263238"/>
      <rect id="Rectangle_33" data-name="Rectangle 33" width="8.581" height="56.785" transform="translate(177.775 91.862)" fill="#455a64"/>
      <path id="Path_4" data-name="Path 4" d="M288.648,357.89a1.421,1.421,0,0,1,0-.3v-4.1c0-2.846-.037-6.933-.059-12.025,0-10.185-.052-24.346-.081-40.355l.192.192h-8.633c.377-.384.1-.1.185-.177v33.459c-.037,9.756-.059,17.82-.074,23.311l-.1-.1,6.349.052h.059l-6.408.052h-.111v-.007c0-5.492-.037-13.555-.067-23.311V301.127c.089-.089-.192.177.2-.207h8.736v.192c0,16.061-.059,30.3-.081,40.5,0,5.07-.044,9.143-.052,11.973v4.043A.422.422,0,0,1,288.648,357.89Z" transform="translate(-102.284 -209.25)" fill="#263238"/>
      <rect id="Rectangle_34" data-name="Rectangle 34" width="8.581" height="56.785" transform="translate(25.092 91.862)" fill="#455a64"/>
      <path id="Path_5" data-name="Path 5" d="M82.073,357.89a2.545,2.545,0,0,1,0-.3v-4.1c0-2.846,0-6.933-.059-12.025,0-10.185-.052-24.346-.081-40.355l.192.192H73.492c.377-.384.1-.1.185-.177v33.459c0,9.756-.059,17.82-.074,23.311l-.1-.1,6.349.052h.059l-6.408.052h-.089v-.007c0-5.492-.044-13.555-.074-23.311V301.127c.089-.089-.192.177.2-.207h8.721v.192c0,16.061-.067,30.3-.089,40.5,0,5.07,0,9.143-.052,11.973v4.043A.467.467,0,0,1,82.073,357.89Z" transform="translate(-48.393 -209.25)" fill="#263238"/>
      <rect id="Rectangle_35" data-name="Rectangle 35" width="194.76" height="9.091" transform="translate(8.16 85.381)" fill="#455a64"/>
      <path id="Path_6" data-name="Path 6" d="M245.322,301.433v-9.091l.052.059-194.752.133h0l.192-.192v9.091l-.192-.192,137.99.081,41.545.059h.118l-41.5.059-138.211.207H50.37v-9.5h.2l194.752.14h.059v8.61A1.735,1.735,0,0,1,245.322,301.433Z" transform="translate(-42.403 -206.962)" fill="#263238"/>
      <rect id="Rectangle_36" data-name="Rectangle 36" width="194.76" height="9.091" transform="translate(8.662 99.017)" fill="#455a64"/>
      <path id="Path_7" data-name="Path 7" d="M246,319.883v-9.091l.052.052-194.745.14h0l.192-.192v9.091l-.192-.192,137.916.074,41.545.052h.118l-41.5.059-138.137.081H51.06V310.6h.207l194.745.14h.059v8.6A1.635,1.635,0,0,1,246,319.883Z" transform="translate(-42.583 -211.775)" fill="#263238"/>
      <rect id="Rectangle_37" data-name="Rectangle 37" width="194.76" height="9.091" transform="translate(8.662 113.156)" fill="#455a64"/>
      <path id="Path_8" data-name="Path 8" d="M246.033,339.013v-9.091l.052.052-194.745.14h0l.192-.192v9.091l-.192-.192,138,.081,41.545.059H231l-41.5.059L51.362,339.1H51.17V329.73h.207l194.745.14h.059v8.618A.759.759,0,0,1,246.033,339.013Z" transform="translate(-42.611 -216.766)" fill="#263238"/>
      <rect id="Rectangle_38" data-name="Rectangle 38" width="194.76" height="9.091" transform="translate(8.662 127.295)" fill="#455a64"/>
      <path id="Path_9" data-name="Path 9" d="M246.033,358.143v-9.091l.052.059-194.745.133h0l.192-.192v9.091l-.192-.192,138,.081,41.545.059H231l-41.5.059-138.137.081H51.17V348.86h.207l194.745.14h.059v8.61A.817.817,0,0,1,246.033,358.143Z" transform="translate(-42.611 -221.757)" fill="#263238"/>
      <rect id="Rectangle_39" data-name="Rectangle 39" width="206.763" height="9.091" transform="translate(0.207 144.102)" fill="#455a64"/>
      <path id="Path_10" data-name="Path 10" d="M246.56,380.883v-9.091l.059.052-206.755.14h0l.192-.192v9.091l-.192-.192,146.475.074,44.117.059h.015l-44.065.059-146.622.081H39.59V371.6h.2l206.755.14h.052v8.6A2.859,2.859,0,0,1,246.56,380.883Z" transform="translate(-39.59 -227.69)" fill="#263238"/>
      <g id="Group_3" data-name="Group 3" transform="translate(191.227 153.193)" opacity="0.3">
        <rect id="Rectangle_40" data-name="Rectangle 40" width="8.581" height="2.838"/>
      </g>
      <path id="Path_11" data-name="Path 11" d="M155.826,218.324l-1.855,11.966L149.2,241.185l-7.073-4.516-2.52-6.356-2.106-5.336s-7.472,1.8-10.451-5.174c-1.434-3.37-3.829-10.554-5.913-17.088a14.146,14.146,0,0,1,8.13-17.4l.673-.281c7.487-2.579,13.858,2.336,16.223,9.882l9.712,23.422" transform="translate(-60.689 -178.834)" fill="#a2675f"/>
      <path id="Path_12" data-name="Path 12" d="M143.5,237.071a17.627,17.627,0,0,0,8.078-6.371s-.081,5.95-7.347,8.2Z" transform="translate(-66.7 -190.929)" fill="#7a4a45"/>
      <path id="Path_13" data-name="Path 13" d="M127.519,215.936a1.079,1.079,0,0,0,1.382.613,1.035,1.035,0,0,0,.658-1.33,1.079,1.079,0,0,0-1.382-.613,1.035,1.035,0,0,0-.658,1.33Z" transform="translate(-62.515 -186.712)" fill="#263238"/>
      <path id="Path_14" data-name="Path 14" d="M124.976,211.8c.177.081.739-.791,1.789-1.234s2.092-.229,2.151-.407-.192-.266-.636-.377a3.03,3.03,0,0,0-1.826.14,2.868,2.868,0,0,0-1.353,1.153C124.88,211.482,124.865,211.77,124.976,211.8Z" transform="translate(-61.85 -185.451)" fill="#263238"/>
      <path id="Path_15" data-name="Path 15" d="M140.249,210.257a1.079,1.079,0,0,0,1.382.613,1.035,1.035,0,0,0,.665-1.33,1.087,1.087,0,0,0-1.382-.613,1.035,1.035,0,0,0-.665,1.33Z" transform="translate(-65.837 -185.231)" fill="#263238"/>
      <path id="Path_16" data-name="Path 16" d="M139.337,205.517c.17.1.791-.739,1.907-1.042s2.106,0,2.217-.17-.155-.281-.591-.443a3.052,3.052,0,0,0-1.8,0,2.89,2.89,0,0,0-1.478,1C139.3,205.192,139.256,205.473,139.337,205.517Z" transform="translate(-65.605 -183.892)" fill="#263238"/>
      <path id="Path_17" data-name="Path 17" d="M137.754,217.127a7.454,7.454,0,0,0-1.877.406c-.288.081-.569.133-.695,0a1.478,1.478,0,0,1-.155-.887q0-1.16-.044-2.439a40.58,40.58,0,0,0-.429-6.238,39.2,39.2,0,0,0-.074,6.26c0,.85.059,1.656.081,2.432a1.752,1.752,0,0,0,.3,1.138.739.739,0,0,0,.621.222,2,2,0,0,0,.5-.133,7.9,7.9,0,0,0,1.774-.761Z" transform="translate(-64.332 -184.999)" fill="#263238"/>
      <path id="Path_18" data-name="Path 18" d="M136.538,199.217c.229.251,1.249-.333,2.579-.739s2.5-.443,2.557-.739c0-.155-.273-.362-.8-.473a4.642,4.642,0,0,0-3.91,1.123C136.575,198.766,136.435,199.1,136.538,199.217Z" transform="translate(-64.875 -182.188)" fill="#263238"/>
      <path id="Path_19" data-name="Path 19" d="M122.848,206.055c.3.163.931-.392,1.818-.776s1.722-.51,1.789-.843c0-.155-.192-.347-.621-.443a2.661,2.661,0,0,0-1.648.207,2.712,2.712,0,0,0-1.256,1.094C122.715,205.67,122.715,205.966,122.848,206.055Z" transform="translate(-61.288 -183.948)" fill="#263238"/>
      <path id="Path_20" data-name="Path 20" d="M157.29,205.582c.1-.1,4.242-3.407,6.061,1.478s-3.437,5.691-3.5,5.551S157.29,205.582,157.29,205.582Z" transform="translate(-70.298 -184.067)" fill="#a2675f"/>
      <path id="Path_21" data-name="Path 21" d="M161.491,210.735a1.429,1.429,0,0,1,.273.037.939.939,0,0,0,.636-.222,2.217,2.217,0,0,0,.266-2.217,2.957,2.957,0,0,0-.695-1.123,1.027,1.027,0,0,0-.88-.414.458.458,0,0,0-.414.421c0,.163.052.244,0,.266s-.133-.044-.17-.259a.577.577,0,0,1,.081-.377.68.68,0,0,1,.421-.3,1.286,1.286,0,0,1,1.168.421,3.141,3.141,0,0,1,.8,1.249,2.342,2.342,0,0,1-.451,2.565.976.976,0,0,1-.82.163C161.543,210.846,161.477,210.75,161.491,210.735Z" transform="translate(-71.137 -184.623)" fill="#7a4a45"/>
      <path id="Path_22" data-name="Path 22" d="M115.727,192.884a2.631,2.631,0,0,1,1.035-2.72,2.358,2.358,0,0,1,2.365-3.947,2.432,2.432,0,0,1,2.217-3.267,2.047,2.047,0,0,1,3.119-2.491,3.533,3.533,0,0,1,4.915-2.506,4.5,4.5,0,0,1,5.979.148,4.3,4.3,0,0,1,4.612,1.286,3.126,3.126,0,0,1,4.006,3.651,2.328,2.328,0,0,1,1.84,3.208,2.276,2.276,0,0,1,1.478,3.829c.739-.207,1.412.613,1.478,1.382a21.853,21.853,0,0,1-.222,2.291c0,.636.17,1.256.2,1.892a4.109,4.109,0,0,1-1.33,3.193l.185.1c.377.562-.3,1.338-.983,1.33a3.407,3.407,0,0,1-1.811-.857,7.531,7.531,0,0,1-1.781-1.478,1.8,1.8,0,0,1-.118-2.158,2.705,2.705,0,0,1-2.336-1.353,7.812,7.812,0,0,1-.924-2.661l-.887-4.087a5.174,5.174,0,0,1-5.262-1.013,2.956,2.956,0,0,1-4.39.665,3.858,3.858,0,0,1-3.437,4c.6.917-.806,2.572-1.678,3.237a3.8,3.8,0,0,1-2.372.48s-1.271,1.685-2.343,1.7-2.749-.65-2.542-1.84a4.826,4.826,0,0,1-1.013-2.01Z" transform="translate(-59.437 -176.89)" fill="#263238"/>
      <path id="Path_23" data-name="Path 23" d="M154.2,189.389a1.929,1.929,0,0,1-.222.82.976.976,0,0,1-.739.458,1.027,1.027,0,0,1-.961-.429l-.177-.266-.14.288a1.434,1.434,0,0,1-1.234.739,1.4,1.4,0,0,1-1.271-.968l-.081-.3-.214.214a1.367,1.367,0,0,1-.976.392,1.345,1.345,0,0,1-.806-.273c-.4-.3-.488-.621-.532-.606s0,.37.392.739a1.537,1.537,0,0,0,.931.414,1.67,1.67,0,0,0,1.242-.436l-.3-.081a1.7,1.7,0,0,0,3.185.273h-.318a1.345,1.345,0,0,0,1.308.532,1.242,1.242,0,0,0,.88-.658C154.443,189.737,154.221,189.36,154.2,189.389Z" transform="translate(-67.569 -180.151)" fill="#455a64"/>
      <path id="Path_24" data-name="Path 24" d="M157.035,194.714a2.088,2.088,0,0,1-.429.414,1.249,1.249,0,0,1-1.419,0l-.163-.133-.074.2a1.4,1.4,0,0,1-1.079.85,1.36,1.36,0,0,1-1.36-.739l-.148-.31-.192.281a.887.887,0,0,1-.177.192.961.961,0,0,1-1.109.081,1,1,0,0,1-.429-.946l.052-.37-.318.192a1.633,1.633,0,0,1-1.212.185,1.545,1.545,0,0,1-.843-.51,3.783,3.783,0,0,1-.458-.791,1.2,1.2,0,0,0,.3.924,1.722,1.722,0,0,0,.924.658,1.9,1.9,0,0,0,1.478-.163l-.244-.17a1.345,1.345,0,0,0,.569,1.308,1.323,1.323,0,0,0,1.56-.081,1.538,1.538,0,0,0,.259-.281h-.34a1.663,1.663,0,0,0,3.082-.155l-.236.066a1.308,1.308,0,0,0,1.005.229,1.382,1.382,0,0,0,.739-.318C157.035,194.98,157.057,194.714,157.035,194.714Z" transform="translate(-67.789 -181.174)" fill="#455a64"/>
      <path id="Path_25" data-name="Path 25" d="M124.149,183.366a1.869,1.869,0,0,1,.414-.532,1.086,1.086,0,0,1,1.582.207l.177.244.044-.3a1.9,1.9,0,0,1,1.138-1.441,1.833,1.833,0,0,1,2.084.554l.222.273.089-.34a2.321,2.321,0,0,1,1.33-1.478,2.239,2.239,0,0,1,2.72.909l.111.177.17-.126a2.217,2.217,0,0,1,2.735.126,2.284,2.284,0,0,1,.584,2.387l-.1.273.281-.066a2.454,2.454,0,0,1,1.818.325,2.38,2.38,0,0,1,.924,1.109,3.7,3.7,0,0,1,.229,1.264.907.907,0,0,0,.074-.34,2.284,2.284,0,0,0-.133-.99,2.484,2.484,0,0,0-.953-1.249,2.7,2.7,0,0,0-2.025-.429l.185.214A2.513,2.513,0,0,0,134,181.178l.281.052a2.505,2.505,0,0,0-.739-.739,2.579,2.579,0,0,0-2.469-.288,2.668,2.668,0,0,0-1.53,1.744l.318-.066a2.114,2.114,0,0,0-3.747,1.086l.222-.059a1.323,1.323,0,0,0-1.064-.5,1.234,1.234,0,0,0-.806.34,1.123,1.123,0,0,0-.3.451A.335.335,0,0,0,124.149,183.366Z" transform="translate(-61.65 -177.705)" fill="#455a64"/>
      <path id="Path_26" data-name="Path 26" d="M142.471,218.768c-.177.059.3,1.234-.355,2.476s-1.959,1.626-1.907,1.8.377.111.909-.089a3.149,3.149,0,0,0,1.611-1.434,2.742,2.742,0,0,0,.229-2.047C142.8,218.938,142.552,218.724,142.471,218.768Z" transform="translate(-65.841 -187.815)" fill="#263238"/>
      <path id="Path_27" data-name="Path 27" d="M131.464,246.219l-5.854,16.489,1.353,18.034,3.7,31.153s13.725-4.634,14.346-4.168-6.075-31.582-6.075-31.582l4.841-26.075-.31-7.679Z" transform="translate(-62.033 -193.979)" fill="#2389b3"/>
      <path id="Path_28" data-name="Path 28" d="M121.651,247.57l-6.438,14.782-13.3,5.218L88,271.879l1.951,10.007a3.622,3.622,0,0,0,4.486,2.794l11.774-3.163,10.968-.5,5.706-13.259Z" transform="translate(-52.22 -195.331)" fill="#2389b3"/>
      <path id="Path_29" data-name="Path 29" d="M94.074,274.462l.976-1.212a6.416,6.416,0,0,1,2.779.606,8.315,8.315,0,0,1,2.683,4.028,18.22,18.22,0,0,1,0,3.415l-6.652-6.837" transform="translate(-53.749 -202.03)" fill="#a2675f"/>
      <path id="Path_30" data-name="Path 30" d="M76.6,264.643c0,.2,12.565,13.511,12.565,13.511l2.365,2.336h7.539l-14.634-16.26-6.312-1.079Z" transform="translate(-49.246 -199.395)" fill="#263238"/>
      <path id="Path_31" data-name="Path 31" d="M142.787,289.223a2.638,2.638,0,0,1-.288-.466l-.739-1.375c-.636-1.2-1.537-2.956-2.587-5.174a79.832,79.832,0,0,1-3.326-7.871,20.889,20.889,0,0,1-.687-2.387,10.157,10.157,0,0,1-.2-1.286v-1.3c0-1.752,0-3.562.089-5.418.089-2.35.207-4.619.347-6.778v-.111l.1-.044,3.9-1.715.044.34-2.956-.392h-.251l.126-.214c1.922-3.3,3.518-6.053,4.664-8.027l1.323-2.217.362-.577a.783.783,0,0,1,.14-.192.91.91,0,0,1-.1.214l-.318.606-1.249,2.276-4.538,8.093-.126-.244,2.956.37.628.074-.576.259-3.88,1.73.111-.163c-.133,2.158-.251,4.435-.34,6.77-.067,1.848-.111,3.651-.1,5.4v1.293a8.623,8.623,0,0,0,.185,1.227,21.546,21.546,0,0,0,.658,2.35,81.282,81.282,0,0,0,3.245,7.871c1.027,2.21,1.87,3.969,2.469,5.174l.68,1.4A3.757,3.757,0,0,1,142.787,289.223Z" transform="translate(-64.472 -194.404)" fill="#263238"/>
      <path id="Path_32" data-name="Path 32" d="M85.975,274.89s-1.907,1.375-1.855,2.158a2.129,2.129,0,0,0,.924,1.752c.443.148,1.759.828,1.759.828a2.654,2.654,0,0,0-.828,2.3,2.151,2.151,0,0,0,1.116,1.478,7.266,7.266,0,0,0,.488,2.387,3,3,0,0,0,1.855,1.168,14.545,14.545,0,0,0,1.478,2.387,4.1,4.1,0,0,0,2.047,1.027,4.842,4.842,0,0,0,2.683-.436,3.644,3.644,0,0,0,2-3.415s4.2-2.1,4.242-3.171-.436-1.412-.436-1.412l-2.1.384s-.3-1.116-.924-1.22-8.293,1.759-8.293,1.759,5.218-.828,5.366-1.855.192-1.9-.591-2.1a53.457,53.457,0,0,0-6.334.406l-.3-.99s1.478.052,1.478-1.264-.828-1.611-.828-1.611Z" transform="translate(-51.208 -202.458)" fill="#a2675f"/>
      <path id="Path_33" data-name="Path 33" d="M144.384,239.828l.636,5.092-3.939,22.151,4,19.121,20.724,6.127,8.152-3.518-2.786-53.673-7.406-5.2-2.846-1.914-10.673,16.157Z" transform="translate(-66.069 -190.227)" fill="#fafafa"/>
      <path id="Path_34" data-name="Path 34" d="M169.992,230.05l5.174,2.306,18.344,2.469,9.9,52.047,1.242,5.979,18.973,28.389a2.7,2.7,0,0,1-.909,3.843l-15.521,8.869a2.639,2.639,0,0,1-3.4-.887l-19.756-29.749-9.786-12.528s-5.861-17.738-6.652-25.285a107.324,107.324,0,0,1,0-19.889C168.055,241.1,169.992,230.05,169.992,230.05Z" transform="translate(-72.867 -190.76)" fill="#2389b3"/>
      <path id="Path_35" data-name="Path 35" d="M196.4,236.5a8.951,8.951,0,0,1,4.634,6.26c1.168,6.179,4.686,16.955,6.009,28.463,1.848,16.1-2.483,21.064-4.523,23.843s-14.693,8.677-14.693,8.677l-9.512-12.668,10.532-8.633-.924-22.358a16.06,16.06,0,0,1-1.848-12.639c1.848-7.554,7.243-11.4,10.347-10.946Z" transform="translate(-75.782 -192.432)" fill="#2389b3"/>
      <g id="Group_4" data-name="Group 4" transform="translate(112.04 95.691)" opacity="0.3">
        <path id="Path_36" data-name="Path 36" d="M209.569,306.36c-1.441,3.9-3.089,7.2-6.445,9.054-3.577,1.981-8.551,4.775-11.944,6.563l2.483,3.858c3.9-.6,11.086-5.137,13.422-8.307A15.1,15.1,0,0,0,209.569,306.36Z" transform="translate(-191.18 -306.36)"/>
      </g>
      <path id="Path_37" data-name="Path 37" d="M187.6,262.734a2,2,0,0,1,.067.333c.044.244.1.569.17.983.133.894.333,2.166.584,3.8.5,3.326,1.22,8.13,2.1,14.043v.074l-.059.052L178.347,292.69v-.229l9.52,12.661-.237-.052c3.163-1.6,6.438-3.326,9.675-5.24.924-.554,1.833-1.109,2.712-1.707a16.609,16.609,0,0,0,2.446-1.922,18.868,18.868,0,0,0,3.008-5.3,31,31,0,0,0,1.781-11.426,74.556,74.556,0,0,0-1.013-10.517c-.51-3.274-1.1-6.3-1.685-9.061-1.16-5.521-2.284-9.948-3.067-13-.4-1.478-.739-2.69-.924-3.511-.1-.392-.185-.695-.237-.916a1.4,1.4,0,0,1-.074-.318s.044.1.111.3.155.525.273.909c.237.791.577,1.973,1,3.5.828,3.045,1.988,7.465,3.186,12.979.606,2.757,1.212,5.795,1.737,9.076a73.559,73.559,0,0,1,1.042,10.554,31.279,31.279,0,0,1-1.774,11.574,19.26,19.26,0,0,1-3.082,5.418,16.194,16.194,0,0,1-2.513,1.981c-.887.6-1.8,1.16-2.727,1.715-3.259,1.929-6.526,3.659-9.7,5.248l-.14.074-.1-.126-9.5-12.683-.1-.133.118-.1L190.246,281.8l-.044.126c-.835-5.913-1.478-10.7-1.973-14.043-.222-1.633-.4-2.956-.517-3.806-.052-.421-.1-.739-.126-.99A2.876,2.876,0,0,1,187.6,262.734Z" transform="translate(-75.694 -193.917)" fill="#263238"/>
      <path id="Path_38" data-name="Path 38" d="M172.83,279.5a2.275,2.275,0,0,1,.044-.517c.044-.37.111-.857.185-1.478.192-1.316.451-3.141.776-5.373.643-4.538,1.656-10.791,2.639-17.738.458-3.355.894-6.548,1.286-9.46l.118.185-3.134-1.2-.31-.118.273-.177,3.149-2.04-.059.14c-.377-2.609-.68-4.745-.9-6.282-.089-.739-.17-1.279-.222-1.715a2.837,2.837,0,0,1-.052-.606,3.542,3.542,0,0,1,.133.591c.074.436.177,1,.3,1.707.251,1.53.6,3.659,1.02,6.26v.1l-.074.052-3.126,2.069-.037-.288,3.149,1.175.133.052v.14c-.384,2.912-.813,6.112-1.264,9.468-.976,6.925-2.033,13.178-2.749,17.738-.37,2.217-.673,4.05-.894,5.358l-.259,1.478A2.63,2.63,0,0,1,172.83,279.5Z" transform="translate(-74.352 -191.561)" fill="#263238"/>
      <path id="Path_39" data-name="Path 39" d="M196.282,237.46c.044.059-.894.739-2.158,2.018a18.9,18.9,0,0,0-5.262,12.838c0,1.826.2,2.956.126,2.956a2.956,2.956,0,0,1-.192-.783,7.644,7.644,0,0,1-.133-.924,12.236,12.236,0,0,1-.074-1.249,16.821,16.821,0,0,1,.229-3.237,20.216,20.216,0,0,1,1.094-3.821,19.956,19.956,0,0,1,1.9-3.5,17,17,0,0,1,2.1-2.476,12.2,12.2,0,0,1,.924-.828,8.333,8.333,0,0,1,.739-.577A3.134,3.134,0,0,1,196.282,237.46Z" transform="translate(-78.462 -192.693)" fill="#263238"/>
      <path id="Path_40" data-name="Path 40" d="M126.927,287.173c-.1,0-.443-3.577-.739-8.012s-.48-8.027-.37-8.041a79.871,79.871,0,0,1,.739,8.012C126.853,283.559,127.031,287.166,126.927,287.173Z" transform="translate(-62.079 -201.475)" fill="#263238"/>
      <path id="Path_41" data-name="Path 41" d="M211.87,334.24l2.846,5.809,13.178-8.433-4.56-5.166Z" transform="translate(-84.538 -215.911)" fill="#2389b3"/>
      <path id="Path_42" data-name="Path 42" d="M211.87,334.167a7.177,7.177,0,0,1,.791-.6l2.321-1.633,8.248-5.706.133-.089.1.118,4.575,5.174.148.17-.192.118-.577.37-12.631,7.99-.133.081-.059-.14-2.04-4.316c-.214-.473-.392-.857-.525-1.16a2.37,2.37,0,0,1-.163-.392,2.292,2.292,0,0,1,.237.406c.155.3.355.687.606,1.153l2.129,4.191-.2-.052,12.565-8.13.577-.37v.288c-1.611-1.826-3.149-3.57-4.553-5.174h.237l-8.256,5.506-2.409,1.574-.658.421Z" transform="translate(-84.538 -215.83)" fill="#263238"/>
      <g id="Group_5" data-name="Group 5" transform="translate(127.428 116.859)" opacity="0.3">
        <path id="Path_43" data-name="Path 43" d="M212,336.729c.059.111,2.956,8.921,2.956,8.921l12.291-8.721L226.191,335l-11.441,7.317Z" transform="translate(-212 -335)"/>
      </g>
      <g id="Group_6" data-name="Group 6" transform="translate(99.098 44.028)" opacity="0.3">
        <path id="Path_44" data-name="Path 44" d="M177.21,236.46l2.217,7.206-2.217,1.005,2.919,1.434s-4.6,25.129-5.174,27.421a7.23,7.23,0,0,1-1.286,3.03l4.486-30.695-3.134-1.19,3.134-2.062Z" transform="translate(-173.67 -236.46)"/>
      </g>
      <path id="Path_45" data-name="Path 45" d="M111.514,286.185a20.134,20.134,0,0,0-.835-5.1,20.473,20.473,0,0,0-2.439-4.546,4.183,4.183,0,0,1,1.064,1.116,12.025,12.025,0,0,1,2.373,6.992A4.324,4.324,0,0,1,111.514,286.185Z" transform="translate(-57.501 -202.889)" fill="#263238"/>
      <g id="Group_7" data-name="Group 7" transform="translate(62.344 68.936)" opacity="0.3">
        <path id="Path_46" data-name="Path 46" d="M125.226,270.16c-2.217,5.469-1.4,11.463,1.168,16.763C125.995,280.825,125.758,276.073,125.226,270.16Z" transform="translate(-123.941 -270.16)"/>
      </g>
      <path id="Path_47" data-name="Path 47" d="M164.9,236.21a3.694,3.694,0,0,1-.384.739l-1.146,1.914c-.961,1.626-2.217,3.888-3.5,6.467-.857,1.737-1.589,3.4-2.217,4.8l-.081.207-.17-.133a25.772,25.772,0,0,1-2.749-2.542,6.062,6.062,0,0,1-.9-1.094,10.042,10.042,0,0,1,1.042.961,36.083,36.083,0,0,0,2.809,2.409l-.251.066c.569-1.426,1.286-3.1,2.143-4.848a66.961,66.961,0,0,1,3.607-6.438c.51-.8.946-1.426,1.256-1.855A3.482,3.482,0,0,1,164.9,236.21Z" transform="translate(-69.375 -192.367)" fill="#263238"/>
      <path id="Path_48" data-name="Path 48" d="M150.868,250a20.775,20.775,0,0,1-1.234,3.762l-.1.259-.207-.177-.1-.089a12.314,12.314,0,0,1-2.735-3.045c.081-.074,1.3,1.286,2.956,2.757l.1.081-.3.081A20.749,20.749,0,0,1,150.868,250Z" transform="translate(-67.483 -195.965)" fill="#263238"/>
      <path id="Path_49" data-name="Path 49" d="M154.878,288.532a.99.99,0,0,1-.059-.355c0-.288-.059-.628-.1-1.042-.059-.968-.148-2.262-.251-3.836-.2-3.237-.429-7.709-.628-12.653s-.3-9.424-.3-12.668c0-1.626,0-2.956.052-3.843a6.321,6.321,0,0,1,.052-1.042,1.479,1.479,0,0,1,.044-.362,1.087,1.087,0,0,1,0,.362q0,.421,0,1.042c0,.968.044,2.262.074,3.836.066,3.245.222,7.716.414,12.661s.377,9.364.51,12.653c.059,1.582.1,2.875.14,3.843v1.042A1.97,1.97,0,0,1,154.878,288.532Z" transform="translate(-69.32 -196.677)" fill="#263238"/>
      <path id="Path_50" data-name="Path 50" d="M91.238,435.769l1.914,18.041s-17.738,8.012-17.672,11.375l35.122-2.446-1.826-28.248Z" transform="translate(-48.954 -244.098)" fill="#2389b3"/>
      <path id="Path_51" data-name="Path 51" d="M113.371,457.546a1.478,1.478,0,0,1,1.109,1.567,1.382,1.382,0,0,1-1.545,1.109,1.478,1.478,0,0,1-1.16-1.663,1.426,1.426,0,0,1,1.729-.976" transform="translate(-58.419 -250.111)" fill="#e0e0e0"/>
      <path id="Path_52" data-name="Path 52" d="M110.673,472.735,110.5,470l-33.762,2.572s-1.523.791-1.264,1.877Z" transform="translate(-48.943 -253.363)" fill="#e0e0e0"/>
      <path id="Path_53" data-name="Path 53" d="M98.6,460.38c0,.17.88.185,1.766.68s1.382,1.183,1.53,1.1-.17-1.05-1.249-1.626S98.555,460.225,98.6,460.38Z" transform="translate(-54.985 -250.801)" fill="#263238"/>
      <path id="Path_54" data-name="Path 54" d="M93.76,462.83c0,.163.739.406,1.367,1.094s.857,1.434,1.027,1.419.214-1-.591-1.833S93.753,462.66,93.76,462.83Z" transform="translate(-53.723 -251.47)" fill="#263238"/>
      <path id="Path_55" data-name="Path 55" d="M90.8,467.986c.155,0,.333-.85-.17-1.759s-1.338-1.227-1.4-1.079.466.621.872,1.367S90.618,467.986,90.8,467.986Z" transform="translate(-52.54 -252.088)" fill="#263238"/>
      <path id="Path_56" data-name="Path 56" d="M98.627,454.556c.081.148.85-.14,1.826-.148s1.752.251,1.833.1-.695-.739-1.84-.7S98.531,454.423,98.627,454.556Z" transform="translate(-54.991 -249.138)" fill="#263238"/>
      <path id="Path_57" data-name="Path 57" d="M76.672,336.041l-16.26,8.041S46.769,330.247,43.62,331.444l14.457,32.1L83.945,352.05Z" transform="translate(-40.641 -217.194)" fill="#2389b3"/>
      <path id="Path_58" data-name="Path 58" d="M73.315,360.745a1.434,1.434,0,0,1-1.086,1.582,1.375,1.375,0,0,1-1.574-1.064,1.478,1.478,0,0,1,1.16-1.663,1.434,1.434,0,0,1,1.478,1.286" transform="translate(-47.691 -224.559)" fill="#e0e0e0"/>
      <path id="Path_59" data-name="Path 59" d="M57.4,363.838l2.506-1.116L45.8,331.938s-1.264-1.146-2.217-.532Z" transform="translate(-40.631 -217.156)" fill="#e0e0e0"/>
      <path id="Path_60" data-name="Path 60" d="M66.046,347.767c-.155.074.126.887,0,1.885s-.628,1.707-.5,1.826.931-.525,1.094-1.737S66.179,347.664,66.046,347.767Z" transform="translate(-46.356 -221.47)" fill="#263238"/>
      <path id="Path_61" data-name="Path 61" d="M61.748,344.059c-.163,0-.126.835-.547,1.663s-1.057,1.3-.983,1.478,1.013-.148,1.515-1.19S61.9,344.015,61.748,344.059Z" transform="translate(-44.97 -220.504)" fill="#263238"/>
      <path id="Path_62" data-name="Path 62" d="M55.679,343.074c0,.155.909,0,1.589-.739s.687-1.678.525-1.685-.414.658-.983,1.293S55.619,342.912,55.679,343.074Z" transform="translate(-43.787 -219.615)" fill="#263238"/>
      <path id="Path_63" data-name="Path 63" d="M71.515,345.833c-.111.133.429.739.739,1.67s.37,1.729.54,1.744.436-.894,0-1.959S71.6,345.7,71.515,345.833Z" transform="translate(-47.915 -220.962)" fill="#263238"/>
      <path id="Path_64" data-name="Path 64" d="M96.533,347.376a9.453,9.453,0,0,0-7.007,7.443c-1.19,6.26,3.119,69.224,3.119,69.224l22.1-1.774-1.353-42.424-.547-8.559,1.9-1.478,38.84-6.837-5.913-16.053-6.5-11.308L111.426,343Z" transform="translate(-52.564 -218.3)" fill="#263238"/>
      <path id="Path_65" data-name="Path 65" d="M164.839,326.99s-16.068-23.23-20.769-26.608c-3.873-2.786-9.7-2.779-13.3-1.16S70.9,328.749,70.9,328.749l8.256,20.695,53.555-18.559,7.982,12.565,7.435,9.845,20.872.163c.983,0,5.469-8.869,5.469-8.869Z" transform="translate(-47.759 -208.52)" fill="#263238"/>
      <path id="Path_66" data-name="Path 66" d="M89.317,361.384a.7.7,0,0,1,0-.214v-1.678c0-.406.1-.88.155-1.412s.229-1.1.347-1.744c.067-.318.2-.636.3-.968a7.386,7.386,0,0,1,.4-1.027,10.014,10.014,0,0,1,3.163-4.05,7.82,7.82,0,0,1,2.713-1.33l3.2-.547,7.044-1.175,16.149-2.676,14.664-2.4h.118l.067.1c4.294,6.7,7.783,12.565,10.717,16.349,1.419,1.914,2.557,3.437,3.355,4.5.377.51.673.909.894,1.2l.222.31.074.111-.1-.089-.251-.3-.939-1.16c-.813-1.02-2-2.52-3.437-4.435-2.993-3.784-6.534-9.608-10.843-16.26l.177.081L122.85,345,106.7,347.644,99.65,348.79l-3.186.517a7.708,7.708,0,0,0-2.624,1.256,9.9,9.9,0,0,0-3.119,3.925,6.362,6.362,0,0,0-.407,1.005,9.005,9.005,0,0,0-.318.953,15.771,15.771,0,0,0-.37,1.715l-.2,1.4c0,.4-.044.739-.059,1.035a3.418,3.418,0,0,1-.044.636,1,1,0,0,1-.007.155Z" transform="translate(-52.562 -220.009)" fill="#455a64"/>
      <path id="Path_67" data-name="Path 67" d="M162.257,323a2.6,2.6,0,0,1,.081.665,11.3,11.3,0,0,1,0,1.826,14.967,14.967,0,0,1-.5,2.676,17.931,17.931,0,0,1-1.227,3.1,18.241,18.241,0,0,1-1.848,2.772,15.767,15.767,0,0,1-1.922,1.929,11.035,11.035,0,0,1-1.478,1.064,2.35,2.35,0,0,1-.6.31c-.037-.059.739-.562,1.9-1.582a17,17,0,0,0,1.818-1.944,18.929,18.929,0,0,0,1.789-2.727,19.214,19.214,0,0,0,1.227-3.023,16.326,16.326,0,0,0,.562-2.6C162.234,323.961,162.183,323,162.257,323Z" transform="translate(-69.64 -215.01)" fill="#455a64"/>
    </g>
    <g id="freepik--Device--inject-34" transform="translate(196.101 137)">
      <path id="Path_68" data-name="Path 68" d="M375.328,322.186l-96.711-.052a21.072,21.072,0,0,1-21.057-21.072l.052-242.5A21.064,21.064,0,0,1,278.691,37.5l96.711.089A21.072,21.072,0,0,1,396.459,58.66l-.044,242.469a21.072,21.072,0,0,1-21.086,21.057Z" transform="translate(-257.56 -37.5)" fill="#263238"/>
      <path id="Path_69" data-name="Path 69" d="M377.555,49.2H358.8a4.664,4.664,0,0,0-4.553,4.76v3.4a4.656,4.656,0,0,1-4.553,4.76H313.15a4.656,4.656,0,0,1-4.553-4.76V53.92a4.664,4.664,0,0,0-4.553-4.76H281.036a14.782,14.782,0,0,0-14.782,14.782l-.044,236.667a14.782,14.782,0,0,0,14.745,14.782l96.526.052a14.782,14.782,0,0,0,14.782-14.782l.052-236.667A14.782,14.782,0,0,0,377.555,49.2Z" transform="translate(-259.817 -40.542)" fill="#fff"/>
      <path id="Path_70" data-name="Path 70" d="M392.3,63.964a14.782,14.782,0,0,0-14.782-14.782H358.764a4.664,4.664,0,0,0-4.553,4.76v3.4a4.656,4.656,0,0,1-4.553,4.76H313.11a4.656,4.656,0,0,1-4.553-4.76V53.92A4.664,4.664,0,0,0,304,49.16H281a14.782,14.782,0,0,0-14.782,14.782l-.044,22.631H392.29Z" transform="translate(-259.806 -40.542)" fill="#f5f5f5"/>
      <path id="Path_71" data-name="Path 71" d="M419.376,80.408c0,.067-2.262.148-5.048.17a48.615,48.615,0,0,1-5.048-.089,98.586,98.586,0,0,1,10.1-.081Z" transform="translate(-297.144 -48.671)" fill="#263238"/>
      <path id="Path_72" data-name="Path 72" d="M419.439,83.9a48.155,48.155,0,0,1-5.041.17,48.6,48.6,0,0,1-5.048-.089c0-.067,2.254-.14,5.048-.17A48.318,48.318,0,0,1,419.439,83.9Z" transform="translate(-297.162 -49.579)" fill="#263238"/>
      <path id="Path_73" data-name="Path 73" d="M419.439,87.4c0,.067-2.254.14-5.041.163a50.014,50.014,0,0,1-5.048-.081,98.417,98.417,0,0,1,10.089-.081Z" transform="translate(-297.162 -50.494)" fill="#263238"/>
      <path id="Path_74" data-name="Path 74" d="M304.11,319.195l.51-1.072a4.967,4.967,0,0,0,3.178,1.109c1.656,0,2.372-.643,2.372-1.478,0-2.343-5.824-.865-5.824-4.435,0-1.478,1.153-2.749,3.7-2.749a5.609,5.609,0,0,1,3.089.857l-.451,1.087a5,5,0,0,0-2.639-.783c-1.633,0-2.336.687-2.336,1.53,0,2.35,5.824.88,5.824,4.435,0,1.478-1.183,2.735-3.7,2.735A5.75,5.75,0,0,1,304.11,319.195Z" transform="translate(-269.705 -108.744)" fill="#263238"/>
      <path id="Path_75" data-name="Path 75" d="M315.67,317.493a3.644,3.644,0,0,1,3.851-3.7,3.237,3.237,0,0,1,2.956,1.552l-1,.643a2.291,2.291,0,0,0-1.981-1.042,2.565,2.565,0,0,0,0,5.122,2.269,2.269,0,0,0,1.981-1.042l1,.636a3.259,3.259,0,0,1-2.956,1.559,3.651,3.651,0,0,1-3.851-3.732Z" transform="translate(-272.721 -109.585)" fill="#263238"/>
      <path id="Path_76" data-name="Path 76" d="M332.764,316.736v4.39h-1.249v-.961a2.7,2.7,0,0,1-2.387,1.042c-1.648,0-2.7-.88-2.7-2.143s.739-2.129,2.956-2.129h2.092v-.259c0-1.109-.65-1.759-1.951-1.759a3.7,3.7,0,0,0-2.306.783l-.554-.99a4.878,4.878,0,0,1,3.008-.931C331.641,313.779,332.764,314.74,332.764,316.736Zm-1.316,2.166v-1.013h-2.033c-1.308,0-1.678.5-1.678,1.123s.606,1.182,1.6,1.182A2.114,2.114,0,0,0,331.448,318.9Z" transform="translate(-275.528 -109.581)" fill="#263238"/>
      <path id="Path_77" data-name="Path 77" d="M345.221,316.934v4.191H343.9v-4.035c0-1.426-.739-2.129-1.959-2.129a2.166,2.166,0,0,0-2.313,2.417v3.747H338.31v-7.28h1.249v1.1a3.126,3.126,0,0,1,2.624-1.168A2.815,2.815,0,0,1,345.221,316.934Z" transform="translate(-278.628 -109.58)" fill="#263238"/>
      <path id="Path_78" data-name="Path 78" d="M357.881,316.934v4.191h-1.316v-4.035c0-1.426-.739-2.129-1.966-2.129a2.158,2.158,0,0,0-2.306,2.417v3.747H351v-7.28h1.264v1.1a3.112,3.112,0,0,1,2.624-1.168A2.813,2.813,0,0,1,357.881,316.934Z" transform="translate(-281.939 -109.58)" fill="#263238"/>
      <path id="Path_79" data-name="Path 79" d="M363.31,310.491a.894.894,0,1,1,.887.857.865.865,0,0,1-.887-.857Zm.229,2.254h1.323v7.28h-1.323Z" transform="translate(-285.15 -108.481)" fill="#263238"/>
      <path id="Path_80" data-name="Path 80" d="M375.721,316.934v4.191H374.4v-4.035c0-1.426-.739-2.129-1.966-2.129a2.158,2.158,0,0,0-2.306,2.417v3.747H368.81v-7.28h1.264v1.1a3.126,3.126,0,0,1,2.624-1.168A2.824,2.824,0,0,1,375.721,316.934Z" transform="translate(-286.585 -109.58)" fill="#263238"/>
      <path id="Path_81" data-name="Path 81" d="M388.248,313.845v6.3c0,2.565-1.3,3.732-3.777,3.732A5.381,5.381,0,0,1,381,322.788l.628-1.013a4.434,4.434,0,0,0,2.8.946c1.722,0,2.506-.8,2.506-2.446V319.7a3.341,3.341,0,0,1-2.624,1.123,3.526,3.526,0,1,1,0-7.044,3.326,3.326,0,0,1,2.69,1.2v-1.131Zm-1.293,3.452a2.513,2.513,0,1,0-2.5,2.372,2.321,2.321,0,0,0,2.5-2.372Z" transform="translate(-289.667 -109.581)" fill="#263238"/>
      <path id="Path_82" data-name="Path 82" d="M393.5,322.221a.916.916,0,0,1,.939-.931.942.942,0,1,1-.939.931Z" transform="translate(-293.027 -111.541)" fill="#263238"/>
      <path id="Path_83" data-name="Path 83" d="M397.72,322.221a.917.917,0,0,1,.939-.931.942.942,0,1,1-.939.931Z" transform="translate(-294.128 -111.541)" fill="#263238"/>
      <path id="Path_84" data-name="Path 84" d="M401.94,322.221a.916.916,0,0,1,.939-.931.942.942,0,1,1-.939.931Z" transform="translate(-295.229 -111.541)" fill="#263238"/>
      <rect id="Rectangle_41" data-name="Rectangle 41" width="101.648" height="27.177" rx="13.588" transform="translate(17.398 223.814)" fill="#ebebeb"/>
      <text id="Attendance_QR" data-name="Attendance QR" transform="translate(67.898 242)" fill="#263238" font-size="11" font-family="ComicSansMS, Comic Sans MS"><tspan x="-39.781" y="0">Attendance QR</tspan></text>
    </g>
    <g id="freepik--qr-code--inject-34" transform="translate(214.614 210.291)">
      <path id="Path_101" data-name="Path 101" d="M294.14,219.262v4.575h4.575V214.68H294.14Z" transform="translate(-285.617 -157.018)" fill="#263238"/>
      <rect id="Rectangle_42" data-name="Rectangle 42" width="4.575" height="4.575" transform="translate(8.523 34.787)" fill="#263238"/>
      <rect id="Rectangle_43" data-name="Rectangle 43" width="4.575" height="4.575" transform="translate(36.801 85.164)" fill="#263238"/>
      <path id="Path_102" data-name="Path 102" d="M298.715,194.5v4.575H294.14v4.575h4.575v4.575h9.157V212.8h4.575V208.22h4.575v-9.15h-4.575v4.575H303.29V189.92h-4.575Z" transform="translate(-285.617 -150.558)" fill="#263238"/>
      <path id="Path_103" data-name="Path 103" d="M311.1,183.73H306.52V188.3h9.157V183.73Z" transform="translate(-288.847 -148.943)" fill="#263238"/>
      <path id="Path_104" data-name="Path 104" d="M339.711,231.885h2.454V227.31H337.25v4.575Z" transform="translate(-296.864 -160.313)" fill="#263238"/>
      <rect id="Rectangle_44" data-name="Rectangle 44" width="4.575" height="4.575" transform="translate(26.831 39.362)" fill="#263238"/>
      <rect id="Rectangle_45" data-name="Rectangle 45" width="4.575" height="4.575" transform="translate(58.863 57.662)" fill="#263238"/>
      <rect id="Rectangle_46" data-name="Rectangle 46" width="4.575" height="4.575" transform="translate(63.438 7.329)" fill="#263238"/>
      <path id="Path_105" data-name="Path 105" d="M334.25,191.265V186.69h4.575v-4.575H334.25V177.54h-4.575v4.575H325.1v4.575h4.575v18.3h4.575v-9.15h4.575v-4.575Z" transform="translate(-293.694 -147.328)" fill="#263238"/>
      <path id="Path_106" data-name="Path 106" d="M366.825,256.405H371.4V251.83h-9.15v4.575Z" transform="translate(-303.387 -166.71)" fill="#263238"/>
      <rect id="Rectangle_47" data-name="Rectangle 47" width="4.575" height="4.575" transform="translate(54.288 7.329)" fill="#263238"/>
      <path id="Path_107" data-name="Path 107" d="M355.855,192.88V188.3H351.28V183.73H346.7v9.15H342.13v4.575h9.15V192.88Z" transform="translate(-298.137 -148.943)" fill="#263238"/>
      <rect id="Rectangle_48" data-name="Rectangle 48" width="4.575" height="4.575" transform="translate(78.967 34.787)" fill="#263238"/>
      <rect id="Rectangle_49" data-name="Rectangle 49" width="4.575" height="4.575" transform="translate(31.539 57.662)" fill="#263238"/>
      <path id="Path_108" data-name="Path 108" d="M352.827,171.077V166.5H357.4V161.92h9.15v-4.575h-4.575V152.77H357.4v4.575h-4.575v4.575h-4.582V166.5H343.67v4.575h9.157Z" transform="translate(-298.539 -140.866)" fill="#263238"/>
      <path id="Path_109" data-name="Path 109" d="M352.827,217.647v-4.582H357.4V208.49h-9.157v4.575H343.67v4.582h9.157Z" transform="translate(-298.539 -155.403)" fill="#263238"/>
      <path id="Path_110" data-name="Path 110" d="M364.938,242.407v-4.582h-9.15V233.25h-4.575v4.575H346.63v4.582h-9.15v4.575h13.732v-4.575h4.575v4.575h4.575v-4.575Z" transform="translate(-296.924 -161.863)" fill="#263238"/>
      <path id="Path_111" data-name="Path 111" d="M345.015,151.155V146.58h-9.15v4.575H331.29v4.575h9.15v-4.575Z" transform="translate(-295.309 -139.251)" fill="#263238"/>
      <rect id="Rectangle_50" data-name="Rectangle 50" width="4.575" height="4.575" transform="translate(45.131 16.479)" fill="#263238"/>
      <path id="Path_112" data-name="Path 112" d="M363.725,180.5H359.15v13.725h9.15V189.65h-4.575v-4.575H368.3V180.5h4.575v-4.575H368.3V171.35h-4.575v9.15Z" transform="translate(-302.578 -145.713)" fill="#263238"/>
      <rect id="Rectangle_51" data-name="Rectangle 51" width="4.575" height="4.575" transform="translate(40.556 21.054)" fill="#263238"/>
      <path id="Path_113" data-name="Path 113" d="M362.25,225.455v4.575h9.15v-4.575h9.15V220.88H366.825v4.575Z" transform="translate(-303.387 -158.636)" fill="#263238"/>
      <rect id="Rectangle_52" data-name="Rectangle 52" width="4.575" height="4.575" transform="translate(78.967 48.512)" fill="#263238"/>
      <rect id="Rectangle_53" data-name="Rectangle 53" width="4.575" height="4.575" transform="translate(63.438 53.087)" fill="#263238"/>
      <path id="Path_114" data-name="Path 114" d="M386.877,189.92H377.72V194.5H382.3v4.575h4.575v-9.15Z" transform="translate(-307.423 -150.558)" fill="#263238"/>
      <rect id="Rectangle_54" data-name="Rectangle 54" width="4.575" height="4.575" transform="translate(72.588 53.087)" fill="#263238"/>
      <path id="Path_115" data-name="Path 115" d="M315.68,239.266h13.732v-18.4h-18.4v4.582H306.53v4.575h4.486V234.6H306.53v4.575h4.486v.089h.089v4.486H306.53v9.15h4.575v-4.59h4.575Zm10.207-14.878v11.441H314.446V224.388Z" transform="translate(-288.849 -158.633)" fill="#263238"/>
      <path id="Path_116" data-name="Path 116" d="M396.16,219.262h4.575V214.68H387.01v4.582h9.15Z" transform="translate(-309.847 -157.018)" fill="#263238"/>
      <path id="Path_117" data-name="Path 117" d="M399.39,192.88h4.575v-9.15H399.39v9.15Z" transform="translate(-313.077 -148.943)" fill="#263238"/>
      <path id="Path_118" data-name="Path 118" d="M348.482,227.31H343.9v9.15h4.582v-9.15Z" transform="translate(-298.599 -160.313)" fill="#263238"/>
      <rect id="Rectangle_55" data-name="Rectangle 55" width="4.575" height="4.575" transform="translate(90.888 62.244)" fill="#263238"/>
      <path id="Path_119" data-name="Path 119" d="M410.162,206.875V202.3H405.58v9.15h4.582Z" transform="translate(-314.692 -153.788)" fill="#263238"/>
      <path id="Path_120" data-name="Path 120" d="M298.715,251.83H294.14v9.15h4.575v-9.15Z" transform="translate(-285.617 -166.71)" fill="#263238"/>
      <path id="Path_121" data-name="Path 121" d="M403.692,169.452V146.54H380.78v22.912Zm-19.453-3.437V150h16.016v16.016Z" transform="translate(-308.221 -139.24)" fill="#263238"/>
      <rect id="Rectangle_56" data-name="Rectangle 56" width="9.15" height="9.15" transform="translate(79.454 14.196)" fill="#263238"/>
      <path id="Path_122" data-name="Path 122" d="M403.692,233.26H380.78v22.875h22.912Zm-19.453,19.446V236.689h16.016v16.016Z" transform="translate(-308.221 -161.866)" fill="#263238"/>
      <rect id="Rectangle_57" data-name="Rectangle 57" width="9.15" height="9.15" transform="translate(79.454 78.253)" fill="#263238"/>
      <path id="Path_123" data-name="Path 123" d="M294.07,146.58v22.912h22.86V146.58Zm19.446,3.429v16.016H297.5V150.009Z" transform="translate(-285.598 -139.251)" fill="#263238"/>
      <rect id="Rectangle_58" data-name="Rectangle 58" width="9.15" height="9.15" transform="translate(15.33 14.196)" fill="#263238"/>
      <path id="Path_124" data-name="Path 124" d="M284.87,159.944v-16.26a5.979,5.979,0,0,1,1.286-4.139,5.639,5.639,0,0,1,4.435-1.848h17.088a.51.51,0,1,0,0-1.02H290.8a7.169,7.169,0,0,0-4.072,1.027,6.467,6.467,0,0,0-2.882,5.336c-.044,2.676,0,5.358,0,8.027v8.869a.517.517,0,0,0,1.027,0Z" transform="translate(-282.925 -136.664)" fill="#2389b3"/>
      <path id="Path_125" data-name="Path 125" d="M305.884,266.431h-16.26a6.016,6.016,0,0,1-4.139-1.286,5.654,5.654,0,0,1-1.848-4.435V243.6a.51.51,0,1,0-1.02,0v16.9a7.184,7.184,0,0,0,1.027,4.073,6.453,6.453,0,0,0,5.336,2.875c2.676.044,5.351,0,8.027,0h8.869a.51.51,0,0,0,0-1.02Z" transform="translate(-282.608 -164.43)" fill="#2389b3"/>
      <path id="Path_126" data-name="Path 126" d="M411.7,243.383v16.26a5.979,5.979,0,0,1-1.286,4.139,5.632,5.632,0,0,1-4.435,1.848H388.87a.51.51,0,0,0,0,1.02h16.9a7.169,7.169,0,0,0,4.072-1.027,6.452,6.452,0,0,0,2.875-5.336c.052-2.676,0-5.351,0-8.027V243.39a.51.51,0,1,0-1.02,0Z" transform="translate(-310.199 -164.375)" fill="#2389b3"/>
      <path id="Path_127" data-name="Path 127" d="M389.273,137.7h16.26A5.979,5.979,0,0,1,409.672,139a5.6,5.6,0,0,1,1.848,4.435v17.132a.51.51,0,1,0,1.02,0V143.638a7.191,7.191,0,0,0-1.027-4.08,6.452,6.452,0,0,0-5.336-2.875c-2.676-.044-5.351,0-8.027,0H389.28a.51.51,0,0,0,0,1.02Z" transform="translate(-310.306 -136.663)" fill="#2389b3"/>
    </g>
  </g>
</svg>
